# xmcd
#
# Track frame offsets:
#	150
#	5660
#	25159
#	41900
#	64622
#	86402
#	108817
#	131556
#	153664
#	171504
#	193932
#	212352
#	235594
#	258224
#	279570
#
# Disc length: 3947 seconds
#
# Revision: 0
# Processed by: cddbd v1.5.2PL0 Copyright (c) Steve Scherf et al.
# Submitted via: EasyCDDAExtractor 11.0.2.1
#
DISCID=c90f690f
DTITLE=Fuze - Who Can I Trust?
DYEAR=1900
DGENRE=Rap
TTITLE0=Put It Down (Skit)
TTITLE1=Put It Down
TTITLE2=Get Yours (Feat. Corleone)
TTITLE3=No Truer 2 (Feat. Corleone)
TTITLE4=Loot Is The Root (Feat. Starr)
TTITLE5=This One Goes Out (Feat. Bone Man)
TTITLE6=Detroit Detroit (Feat. Corleone)
TTITLE7=Make It Hot
TTITLE8=Where They At (Feat. Lucky Da Don)
TTITLE9=Who Can I Trust
TTITLE10=Haters (Feat. Tony Scott)
TTITLE11=Keep On (Feat. Lucky Da Don)
TTITLE12=Big Shot (Feat. Tony Scott)
TTITLE13=Ghetto Super Stars (Feat. Corleone and Bone Man)
TTITLE14=You Know Who
EXTD=
EXTT0=
EXTT1=
EXTT2=
EXTT3=
EXTT4=
EXTT5=
EXTT6=
EXTT7=
EXTT8=
EXTT9=
EXTT10=
EXTT11=
EXTT12=
EXTT13=
EXTT14=
PLAYORDER=
